<svg xmlns="http://www.w3.org/2000/svg" xmlns:xlink="http://www.w3.org/1999/xlink" version="1.1" x="0px" y="0px" width="100px" height="100px" viewBox="0 0 100 100" enable-background="new 0 0 100 100" xml:space="preserve">
<g id="Captions">
</g>
<g id="Your_Icon">
	<g>
		<path d="M29.853,46.199C23.591,41.473,20,34.267,20,26.434c0-13.647,11.102-24.75,24.75-24.75c13.647,0,24.75,11.103,24.75,24.75    c0,7.564-3.392,14.614-9.307,19.342L55.93,40.44c4.285-3.424,6.742-8.529,6.742-14.007c0-9.883-8.04-17.923-17.922-17.923    s-17.921,8.04-17.921,17.923c0,5.674,2.601,10.892,7.137,14.315L29.853,46.199z"/>
	</g>
	<g>
		<path d="M44.989,96c-10.362,0-18.791-7.896-18.791-17.597c0-4.272,1.652-8.391,4.652-11.597l4.986,4.666    c-1.812,1.937-2.81,4.397-2.81,6.931c0,5.938,5.367,10.769,11.963,10.769c6.595,0,11.962-4.831,11.962-10.769    c0-2.137-0.695-4.201-2.009-5.972l5.482-4.07c2.193,2.955,3.353,6.429,3.353,10.042C63.777,88.104,55.35,96,44.989,96z"/>
	</g>
	<g>
		<path d="M34.686,72.713l-5.023-4.626c2.495-2.708,3.925-6.682,3.925-10.901c0-4.866-1.882-9.337-5.033-11.957l4.366-5.25    c4.693,3.903,7.496,10.336,7.496,17.207C40.417,63.1,38.327,68.758,34.686,72.713z"/>
	</g>
	<g>
		<path d="M54.926,72.423c-2.874-3.904-4.521-9.458-4.521-15.237c0-6.729,2.227-13.065,5.958-16.948l4.922,4.731    c-2.5,2.601-4.054,7.282-4.054,12.217c0,4.354,1.164,8.434,3.193,11.189L54.926,72.423z"/>
	</g>
	<g>
		<path d="M43.997,85.597c-5.657,0-10.967-3.149-14.206-8.424l2.908-1.787c2.614,4.256,6.837,6.796,11.298,6.796    c6.25,0,11.767-4.929,13.417-11.986l3.324,0.776C58.725,79.583,51.842,85.597,43.997,85.597z"/>
	</g>
	<g>
		<path d="M37.929,75.233c-0.356,0-0.715-0.11-1.019-0.34c-0.757-0.563-0.912-1.633-0.348-2.389    c5.809-7.778,11.194-18.571,15.166-30.391c2.009-5.987,3.572-11.959,4.642-17.748c0.172-0.927,1.058-1.537,1.988-1.368    c0.928,0.171,1.541,1.062,1.37,1.989c-1.101,5.946-2.703,12.073-4.766,18.214c-4.082,12.153-9.646,23.285-15.665,31.348    C38.963,74.997,38.448,75.233,37.929,75.233z"/>
	</g>
	<g>
		<path d="M48.846,41.491c-5,0-9.242-6.268-10.808-15.968c-0.149-0.931,0.483-1.808,1.414-1.957c0.927-0.15,1.808,0.482,1.957,1.413    c1.224,7.59,4.352,13.099,7.437,13.099c3.234,0,6.497-6.085,7.591-14.153c0.126-0.934,0.989-1.586,1.92-1.462    c0.935,0.126,1.589,0.986,1.462,1.92C58.41,34.775,54.104,41.491,48.846,41.491z"/>
	</g>
	<g>
		<circle cx="49.048" cy="31.769" r="3.576"/>
	</g>
	<g>
		<path d="M32.161,75.72c-0.394,0-0.791-0.136-1.111-0.412c-0.715-0.615-0.796-1.692-0.182-2.407    c5.869-6.827,9.371-18.255,9.371-30.572c0-5.873-0.769-11.485-2.29-16.683c-0.264-0.905,0.253-1.853,1.16-2.117    c0.905-0.268,1.852,0.255,2.117,1.158c1.611,5.509,2.429,11.444,2.429,17.642c0,13.109-3.812,25.371-10.198,32.798    C33.119,75.518,32.642,75.72,32.161,75.72z"/>
	</g>
</g>
</svg>